PathFileType	4	(X/Y/Z)	C:\Users\dbl\Desktop\20210112\20210112\bx_n_5_901.trc
DataRate	CameraRate	NumFrames	NumMarkers	Units	OrigDataRate	OrigDataStartFrame	OrigNumFrames
50.00	50.00	       5	43	mm	50.00	177	       470
Frame#	Time	Top.Head			R.Acromium			L.Acromium			Sternum			R.ASIS			L.ASIS			V.Sacral			R.Thigh.Upper			R.Thigh.Front			R.Thigh.Rear			R.Knee.Lat			R.Knee.Med			R.Shank.Upper			R.Shank.Front			R.Shank.Rear			R.Ankle.Lat			R.Midfoot.Lat			R.Toe.Lat			R.Toe.Tip			R.Toe.Med			R.Ankle.Med			R.Midfoot.Sup			R.Heel			L.Thigh.Upper			L.Thigh.Front			L.Thigh.Rear			L.Knee.Lat			L.Knee.Med			L.Shank.Upper			L.Shank.Front			L.Shank.Rear			L.Ankle.Lat			L.Midfoot.Lat			L.Toe.Lat			L.Toe.Tip			L.Toe.Med			L.Ankle.Med			L.Midfoot.Sup			L.Heel			origin1 front left			origin2 front right			origin 3 back right			origin 4 back leftt			
		X1	Y1	Z1	X2	Y2	Z2	X3	Y3	Z3	X4	Y4	Z4	X5	Y5	Z5	X6	Y6	Z6	X7	Y7	Z7	X8	Y8	Z8	X9	Y9	Z9	X10	Y10	Z10	X11	Y11	Z11	X12	Y12	Z12	X13	Y13	Z13	X14	Y14	Z14	X15	Y15	Z15	X16	Y16	Z16	X17	Y17	Z17	X18	Y18	Z18	X19	Y19	Z19	X20	Y20	Z20	X21	Y21	Z21	X22	Y22	Z22	X23	Y23	Z23	X24	Y24	Z24	X25	Y25	Z25	X26	Y26	Z26	X27	Y27	Z27	X28	Y28	Z28	X29	Y29	Z29	X30	Y30	Z30	X31	Y31	Z31	X32	Y32	Z32	X33	Y33	Z33	X34	Y34	Z34	X35	Y35	Z35	X36	Y36	Z36	X37	Y37	Z37	X38	Y38	Z38	X39	Y39	Z39	X40	Y40	Z40	X41	Y41	Z41	X42	Y42	Z42	X43	Y43	Z43	

177	3.520	-422.44913	103.50826	1716.80420	-511.97708	-68.90163	1416.15454	-508.96136	279.26251	1435.99133	-541.60358	105.04814	1230.29358	-723.66699	-2.58699	1024.68091	-734.11847	241.48154	1045.58948	-919.65942	90.32027	1083.03870	-796.89471	-69.59123	870.79559	-711.97015	-6.17802	806.61505	-798.99170	-63.57034	752.93707	-790.93250	-37.79974	612.02087	-773.46552	71.07251	566.81140	-790.84338	-36.31710	564.54901	-733.86633	13.73329	524.80627	-816.52087	-51.75834	478.54208	-762.93372	-25.37767	204.31085	-647.99036	-67.94340	161.26527	-605.09125	-72.96048	156.67885	-549.48322	-22.18229	162.80406	-600.80627	28.36477	168.03230	-726.81378	64.70256	219.27150	-675.88074	51.35824	162.80138	-795.31445	32.97710	172.00702	-828.75122	284.49390	872.04742	-719.25928	227.07672	795.76105	-813.28052	278.30923	737.91217	-823.77417	257.44467	633.64423	-778.17773	149.72017	571.27679	-813.66565	254.05713	567.93372	-752.67444	211.80151	538.07111	-837.51544	265.45346	489.30441	-773.48828	233.19403	202.07312	-659.88800	298.37247	156.74097	-623.55798	306.42371	158.20464	-558.56720	252.76965	164.70752	-595.03094	218.95097	174.33540	-720.96729	159.33653	222.39767	-677.83636	175.75502	163.56592	-799.39563	184.20270	181.00441	-528.22192	304.08798	146.49118	-517.87909	-72.90998	143.40451	-875.79614	-78.60114	141.10254	-882.61072	296.11777	144.76077	
178	3.540	-435.60757	103.00128	1727.76062	-519.93329	-69.35981	1424.95422	-515.94971	279.55652	1444.92773	-543.82538	105.02863	1238.80884	-720.54254	-2.29784	1026.90735	-730.65839	242.04033	1047.34119	-916.90210	91.41920	1082.07031	-793.59076	-68.93690	871.33264	-708.61047	-6.14716	806.90186	-796.11182	-63.06358	753.62610	-788.75800	-37.42955	612.43146	-770.95776	71.35951	567.13947	-788.89020	-35.97274	564.99139	-731.91992	13.76213	524.86505	-815.15668	-51.31613	479.00500	-762.86810	-25.31792	204.39110	-648.10114	-68.08633	161.17189	-605.18420	-73.09502	156.68523	-549.52063	-22.37190	162.79045	-600.82648	28.00885	168.35652	-726.52356	64.72148	219.21764	-675.84332	51.33009	162.85912	-795.27252	33.06783	171.99593	-824.59473	285.08084	872.49481	-715.48663	227.64424	796.01794	-810.09393	278.19403	738.42731	-821.13037	257.56915	634.20355	-775.85901	149.86186	571.66711	-811.42767	254.25804	568.39032	-750.64758	211.94572	538.17047	-835.78223	265.47797	489.84531	-773.52368	233.21152	202.09546	-659.96667	298.40775	156.74023	-623.68646	306.43372	158.27907	-558.69342	252.82277	164.82375	-595.11871	219.04607	174.38193	-720.79169	159.33804	222.31860	-677.87524	175.76500	163.57359	-799.38947	183.98241	181.23056	-528.25476	304.07150	146.45248	-517.87500	-72.89977	143.40039	-875.79126	-78.58692	141.08147	-882.61395	296.10901	144.74446	
179	3.560	-448.66461	102.57655	1738.23926	-527.90942	-69.82643	1433.48657	-523.01678	279.83463	1453.50745	-546.12573	104.96091	1247.13184	-717.28650	-1.90712	1029.06592	-726.97424	242.59981	1049.04651	-914.12457	92.64297	1081.13696	-790.24261	-68.23882	871.86505	-705.11334	-6.15723	807.21417	-793.17017	-62.53114	754.31934	-786.50586	-37.00456	612.86951	-768.31458	71.70129	567.48212	-786.85156	-35.56701	565.45984	-729.88776	13.82796	524.93164	-813.74530	-50.79299	479.51038	-762.81543	-25.18968	204.48726	-648.20074	-68.22082	161.08154	-605.26758	-73.23763	156.69765	-549.55060	-22.56402	162.79196	-600.87714	27.64140	168.65340	-726.20770	64.77612	219.21297	-675.81177	51.30402	162.91351	-795.24103	33.19282	172.01981	-820.17480	285.67322	872.91949	-711.43335	228.15900	796.27759	-806.60712	278.15677	738.93665	-818.28973	257.76834	634.78113	-773.40283	150.04796	572.08960	-808.99487	254.52702	568.88403	-748.47284	212.11949	538.26282	-833.88934	265.55264	490.38599	-773.55505	233.22508	202.10829	-660.01740	298.41708	156.77835	-623.77936	306.43372	158.34099	-558.78278	252.86661	164.90155	-595.19873	219.12256	174.43156	-720.59442	159.32426	222.21957	-677.89307	175.76228	163.54704	-799.36090	183.77119	181.46574	-528.26965	304.05493	146.41290	-517.88263	-72.89716	143.38853	-875.79175	-78.57787	141.07272	-882.61346	296.10535	144.72647	
180	3.580	-461.58383	102.24551	1748.24036	-535.86725	-70.31144	1441.75342	-530.16028	280.11676	1461.73267	-548.49640	104.85011	1255.25330	-713.86377	-1.42072	1031.14709	-723.08020	243.17955	1050.70435	-911.25336	93.92623	1080.26465	-786.77411	-67.51109	872.40564	-701.44843	-6.16024	807.55188	-790.15247	-61.93236	754.98993	-784.14374	-36.51549	613.33575	-765.53082	72.10599	567.83643	-784.69287	-35.09022	565.94061	-727.75067	13.96088	524.99335	-812.24371	-50.19299	480.06180	-762.77277	-24.99881	204.60573	-648.28455	-68.33449	160.99979	-605.33600	-73.37465	156.71994	-549.57117	-22.75775	162.80743	-600.94739	27.29340	168.90645	-725.85297	64.88054	219.25412	-675.78741	51.28654	162.95988	-795.21350	33.35128	172.07967	-815.52344	286.26813	873.32819	-707.13257	228.64095	796.55286	-802.83203	278.21750	739.44824	-815.25952	258.07776	635.37067	-770.83319	150.30992	572.53839	-806.36731	254.88635	569.40009	-746.14929	212.35373	538.35657	-831.82782	265.72321	490.93134	-773.57129	233.24384	202.11926	-660.03186	298.40024	156.84785	-623.82697	306.42514	158.38979	-558.81293	252.89178	164.93184	-595.25879	219.18271	174.47878	-720.38013	159.29979	222.11145	-677.88586	175.75468	163.48755	-799.30615	183.60310	181.68633	-528.26685	304.03708	146.37764	-517.89417	-72.90326	143.37476	-875.79626	-78.57460	141.07562	-882.60822	296.11069	144.71147	
181	3.600	-474.32370	102.01602	1757.75647	-543.76660	-70.81189	1449.74365	-537.36212	280.42010	1469.60547	-550.93433	104.70834	1263.15601	-710.25830	-0.85579	1033.14587	-719.00928	243.79741	1052.31018	-908.21167	95.20927	1079.45764	-783.12030	-66.76268	872.96558	-697.60663	-6.10131	807.90771	-787.03491	-61.23481	755.61456	-781.64966	-35.96051	613.82336	-762.60938	72.57014	568.19940	-782.39252	-34.54163	566.41888	-725.50012	14.18373	525.03943	-810.61957	-49.52770	480.65631	-762.73462	-24.76729	204.75261	-648.34985	-68.41908	160.93030	-605.38782	-73.49411	156.75258	-549.58282	-22.95125	162.83192	-601.02057	26.99145	169.11018	-725.45880	65.03907	219.32533	-675.76721	51.28194	162.99171	-795.18164	33.53578	172.16626	-810.70313	286.86481	873.72479	-702.65137	229.13301	796.84064	-798.83331	278.37622	739.96460	-812.07642	258.50739	635.96063	-768.18549	150.66347	573.00293	-803.57935	255.33527	569.91455	-743.69995	212.66690	538.45605	-829.61719	266.01590	491.48312	-773.55969	233.27493	202.13618	-660.01099	298.36279	156.93280	-623.83002	306.41089	158.42761	-558.77466	252.89348	164.91446	-595.28894	219.22888	174.51363	-720.15637	159.26846	222.00787	-677.85913	175.75127	163.40082	-799.22791	183.50006	181.87457	-528.25067	304.01828	146.35124	-517.90082	-72.91640	143.36636	-875.80341	-78.57716	141.08673	-882.59802	296.12817	144.70413	
